<?xml version="1.0" encoding="UTF-8" standalone="no"?>
<!-- Created with Inkscape (http://www.inkscape.org/) -->

<svg
   xmlns:dc="http://purl.org/dc/elements/1.1/"
   xmlns:cc="http://creativecommons.org/ns#"
   xmlns:rdf="http://www.w3.org/1999/02/22-rdf-syntax-ns#"
   xmlns:svg="http://www.w3.org/2000/svg"
   xmlns="http://www.w3.org/2000/svg"
   xmlns:xlink="http://www.w3.org/1999/xlink"
   xmlns:sodipodi="http://sodipodi.sourceforge.net/DTD/sodipodi-0.dtd"
   xmlns:inkscape="http://www.inkscape.org/namespaces/inkscape"
   width="128"
   height="128"
   viewBox="0 0 128 128"
   id="svg5657"
   version="1.1"
   inkscape:version="0.91 r13725"
   sodipodi:docname="icon.svg"
   inkscape:export-filename="C:\rad\github\chrome-extension-password-generator\images\icon128.png"
   inkscape:export-xdpi="90"
   inkscape:export-ydpi="90">
  <defs
     id="defs5659">
    <radialGradient
       cx="12.57571"
       cy="67.501709"
       fx="12.57571"
       fy="67.501709"
       gradientTransform="scale(1.925808,0.519262)"
       gradientUnits="userSpaceOnUse"
       id="radialGradient35088"
       inkscape:collect="always"
       r="8.7662792"
       xlink:href="#linearGradient2454" />
    <linearGradient
       id="linearGradient2454"
       inkscape:collect="always">
      <stop
         id="stop2456"
         offset="0"
         style="stop-color:#000000;stop-opacity:1;" />
      <stop
         id="stop2458"
         offset="1"
         style="stop-color:#000000;stop-opacity:0;" />
    </linearGradient>
    <linearGradient
       gradientTransform="matrix(15.401043,0,0,15.948654,-11.070064,104.56497)"
       gradientUnits="userSpaceOnUse"
       id="linearGradient35664"
       inkscape:collect="always"
       x1="12.88666"
       x2="20.087339"
       xlink:href="#linearGradient10591"
       y1="4.3602757"
       y2="18.414022" />
    <linearGradient
       id="linearGradient10591">
      <stop
         id="stop10593"
         offset="0"
         style="stop-color:#babdb6;stop-opacity:1;" />
      <stop
         id="stop10599"
         offset="0.5"
         style="stop-color:#eeeeec;stop-opacity:1;" />
      <stop
         id="stop10595"
         offset="1"
         style="stop-color:#babdb6;stop-opacity:1;" />
    </linearGradient>
    <linearGradient
       gradientTransform="matrix(15.401043,0,0,15.948654,-11.070064,104.56497)"
       gradientUnits="userSpaceOnUse"
       id="linearGradient35666"
       inkscape:collect="always"
       x1="19.250618"
       x2="16.198252"
       xlink:href="#linearGradient11335"
       y1="9.6635771"
       y2="6.0396547" />
    <linearGradient
       id="linearGradient11335">
      <stop
         id="stop11337"
         offset="0"
         style="stop-color:#555753;stop-opacity:1;" />
      <stop
         id="stop11339"
         offset="1"
         style="stop-color:#888a85;stop-opacity:1;" />
    </linearGradient>
    <linearGradient
       gradientTransform="matrix(15.721413,0,0,17.134408,-9.2895887,61.732234)"
       gradientUnits="userSpaceOnUse"
       id="linearGradient35659"
       inkscape:collect="always"
       x1="6.72682"
       x2="40.938126"
       xlink:href="#linearGradient2092"
       y1="32.161697"
       y2="32.161697" />
    <linearGradient
       id="linearGradient2092">
      <stop
         id="stop2094"
         offset="0"
         style="stop-color:#fce94f;stop-opacity:1;" />
      <stop
         id="stop27163"
         offset="0.20999999"
         style="stop-color:#ffec41;stop-opacity:1.0000000;" />
      <stop
         id="stop2293"
         offset="0.83999997"
         style="stop-color:#edd400;stop-opacity:1;" />
      <stop
         id="stop2100"
         offset="1"
         style="stop-color:#c4a00f;stop-opacity:0.94117647;" />
    </linearGradient>
    <linearGradient
       gradientTransform="matrix(15.721413,0,0,17.134408,-9.2895887,79.385615)"
       gradientUnits="userSpaceOnUse"
       id="linearGradient35661"
       inkscape:collect="always"
       x1="31.630468"
       x2="8.6713638"
       xlink:href="#linearGradient11327"
       y1="41.791817"
       y2="25.793524" />
    <linearGradient
       id="linearGradient11327">
      <stop
         id="stop11329"
         offset="0"
         style="stop-color:#8f5902;stop-opacity:1;" />
      <stop
         id="stop11331"
         offset="1"
         style="stop-color:#c17d11;stop-opacity:1;" />
    </linearGradient>
    <linearGradient
       gradientTransform="matrix(14.541559,0,0,15.073297,19.247073,148.75198)"
       gradientUnits="userSpaceOnUse"
       id="linearGradient35656"
       inkscape:collect="always"
       x1="10.907269"
       x2="30.875446"
       xlink:href="#linearGradient9845"
       y1="25.002281"
       y2="36.127281" />
    <linearGradient
       id="linearGradient9845">
      <stop
         id="stop9847"
         offset="0"
         style="stop-color:#ffffff;stop-opacity:1;" />
      <stop
         id="stop9849"
         offset="1.0000000"
         style="stop-color:#ffffff;stop-opacity:0.49484536;" />
    </linearGradient>
    <linearGradient
       gradientTransform="matrix(31.442825,0,0,14.809689,-182.22526,119.54828)"
       gradientUnits="userSpaceOnUse"
       id="linearGradient35653"
       inkscape:collect="always"
       x1="14.217941"
       x2="17.859085"
       xlink:href="#linearGradient9845"
       y1="6.8795347"
       y2="3.9566603" />
    <linearGradient
       gradientTransform="matrix(31.442825,0,0,15.721413,163.64608,98.870782)"
       gradientUnits="userSpaceOnUse"
       id="linearGradient35650"
       inkscape:collect="always"
       x1="11.5"
       x2="11.779029"
       xlink:href="#linearGradient9845"
       y1="20.579729"
       y2="14.259961" />
    <radialGradient
       cx="15.115514"
       cy="63.965389"
       fx="15.115514"
       fy="63.965389"
       gradientTransform="scale(1.64399,0.608276)"
       gradientUnits="userSpaceOnUse"
       id="radialGradient32199"
       inkscape:collect="always"
       r="12.289036"
       xlink:href="#linearGradient2454" />
    <radialGradient
       cx="18.247644"
       cy="15.716079"
       fx="18.247644"
       fy="15.716079"
       gradientTransform="matrix(17.887253,0,0,17.887647,-85.112438,82.88338)"
       gradientUnits="userSpaceOnUse"
       id="radialGradient32376"
       inkscape:collect="always"
       r="29.993349"
       xlink:href="#linearGradient3962" />
    <linearGradient
       id="linearGradient3962">
      <stop
         id="stop3964"
         offset="0"
         style="stop-color:#d3d7cf;stop-opacity:1;" />
      <stop
         id="stop4134"
         offset="0.15517241"
         style="stop-color:#729fcf;stop-opacity:1;" />
      <stop
         id="stop4346"
         offset="0.75"
         style="stop-color:#3465a4;stop-opacity:1;" />
      <stop
         id="stop3966"
         offset="1"
         style="stop-color:#204a87;stop-opacity:1;" />
    </linearGradient>
    <radialGradient
       cx="11.826907"
       cy="10.476453"
       fx="11.826907"
       fy="10.476453"
       gradientTransform="scale(1.179536,0.847791)"
       gradientUnits="userSpaceOnUse"
       id="radialGradient32203"
       inkscape:collect="always"
       r="32.664848"
       xlink:href="#linearGradient9845" />
    <radialGradient
       cx="18.63378"
       cy="17.486208"
       fx="18.934305"
       fy="17.810213"
       gradientTransform="scale(1.036822,0.964486)"
       gradientUnits="userSpaceOnUse"
       id="radialGradient32671"
       inkscape:collect="always"
       r="40.692665"
       xlink:href="#linearGradient4750" />
    <linearGradient
       id="linearGradient4750">
      <stop
         id="stop4752"
         offset="0"
         style="stop-color:#ffffff;stop-opacity:1;" />
      <stop
         id="stop4758"
         offset="0.37931034"
         style="stop-color:#fefefe;stop-opacity:1.0000000;" />
      <stop
         id="stop4754"
         offset="1"
         style="stop-color:#000000;stop-opacity:1;" />
    </linearGradient>
    <radialGradient
       cx="18.63378"
       cy="17.486208"
       fx="18.934305"
       fy="17.810213"
       gradientTransform="scale(1.036822,0.964486)"
       gradientUnits="userSpaceOnUse"
       id="radialGradient32669"
       inkscape:collect="always"
       r="40.692665"
       xlink:href="#linearGradient4750" />
    <radialGradient
       cx="18.63378"
       cy="17.486208"
       fx="18.934305"
       fy="17.810213"
       gradientTransform="scale(1.036822,0.964486)"
       gradientUnits="userSpaceOnUse"
       id="radialGradient32663"
       inkscape:collect="always"
       r="40.692665"
       xlink:href="#linearGradient4750" />
    <radialGradient
       cx="18.63378"
       cy="17.486208"
       fx="18.934305"
       fy="17.810213"
       gradientTransform="scale(1.036822,0.964486)"
       gradientUnits="userSpaceOnUse"
       id="radialGradient32661"
       inkscape:collect="always"
       r="40.692665"
       xlink:href="#linearGradient4750" />
    <radialGradient
       cx="18.63378"
       cy="17.486208"
       fx="18.934305"
       fy="17.810213"
       gradientTransform="scale(1.036822,0.964486)"
       gradientUnits="userSpaceOnUse"
       id="radialGradient32655"
       inkscape:collect="always"
       r="40.692665"
       xlink:href="#linearGradient4750" />
    <radialGradient
       cx="18.63378"
       cy="17.486208"
       fx="18.934305"
       fy="17.810213"
       gradientTransform="scale(1.036822,0.964486)"
       gradientUnits="userSpaceOnUse"
       id="radialGradient32653"
       inkscape:collect="always"
       r="40.692665"
       xlink:href="#linearGradient4750" />
    <radialGradient
       cx="18.63378"
       cy="17.486208"
       fx="18.934305"
       fy="17.810213"
       gradientTransform="scale(1.036822,0.964486)"
       gradientUnits="userSpaceOnUse"
       id="radialGradient32647"
       inkscape:collect="always"
       r="40.692665"
       xlink:href="#linearGradient4750" />
    <radialGradient
       cx="18.63378"
       cy="17.486208"
       fx="18.934305"
       fy="17.810213"
       gradientTransform="scale(1.036822,0.964486)"
       gradientUnits="userSpaceOnUse"
       id="radialGradient32645"
       inkscape:collect="always"
       r="40.692665"
       xlink:href="#linearGradient4750" />
    <radialGradient
       cx="18.63378"
       cy="17.486208"
       fx="18.934305"
       fy="17.810213"
       gradientTransform="scale(1.036822,0.964486)"
       gradientUnits="userSpaceOnUse"
       id="radialGradient32639"
       inkscape:collect="always"
       r="40.692665"
       xlink:href="#linearGradient4750" />
    <radialGradient
       cx="18.63378"
       cy="17.486208"
       fx="18.934305"
       fy="17.810213"
       gradientTransform="scale(1.036822,0.964486)"
       gradientUnits="userSpaceOnUse"
       id="radialGradient32637"
       inkscape:collect="always"
       r="40.692665"
       xlink:href="#linearGradient4750" />
    <radialGradient
       cx="18.63378"
       cy="17.486208"
       fx="18.934305"
       fy="17.810213"
       gradientTransform="scale(1.036822,0.964486)"
       gradientUnits="userSpaceOnUse"
       id="radialGradient32631"
       inkscape:collect="always"
       r="40.692665"
       xlink:href="#linearGradient4750" />
    <radialGradient
       cx="18.63378"
       cy="17.486208"
       fx="18.934305"
       fy="17.810213"
       gradientTransform="scale(1.036822,0.964486)"
       gradientUnits="userSpaceOnUse"
       id="radialGradient32629"
       inkscape:collect="always"
       r="40.692665"
       xlink:href="#linearGradient4750" />
    <radialGradient
       cx="18.63378"
       cy="17.486208"
       fx="18.934305"
       fy="17.810213"
       gradientTransform="scale(1.036822,0.964486)"
       gradientUnits="userSpaceOnUse"
       id="radialGradient32623"
       inkscape:collect="always"
       r="40.692665"
       xlink:href="#linearGradient4750" />
    <radialGradient
       cx="18.63378"
       cy="17.486208"
       fx="18.934305"
       fy="17.810213"
       gradientTransform="scale(1.036822,0.964486)"
       gradientUnits="userSpaceOnUse"
       id="radialGradient32621"
       inkscape:collect="always"
       r="40.692665"
       xlink:href="#linearGradient4750" />
    <radialGradient
       cx="18.63378"
       cy="17.486208"
       fx="18.934305"
       fy="17.810213"
       gradientTransform="scale(1.036822,0.964486)"
       gradientUnits="userSpaceOnUse"
       id="radialGradient32615"
       inkscape:collect="always"
       r="40.692665"
       xlink:href="#linearGradient4750" />
    <radialGradient
       cx="18.63378"
       cy="17.486208"
       fx="18.934305"
       fy="17.810213"
       gradientTransform="scale(1.036822,0.964486)"
       gradientUnits="userSpaceOnUse"
       id="radialGradient32613"
       inkscape:collect="always"
       r="40.692665"
       xlink:href="#linearGradient4750" />
    <radialGradient
       cx="18.63378"
       cy="17.486208"
       fx="18.934305"
       fy="17.810213"
       gradientTransform="scale(1.036822,0.964486)"
       gradientUnits="userSpaceOnUse"
       id="radialGradient32601"
       inkscape:collect="always"
       r="40.692665"
       xlink:href="#linearGradient4750" />
    <radialGradient
       cx="18.63378"
       cy="17.486208"
       fx="18.934305"
       fy="17.810213"
       gradientTransform="scale(1.036822,0.964486)"
       gradientUnits="userSpaceOnUse"
       id="radialGradient32599"
       inkscape:collect="always"
       r="40.692665"
       xlink:href="#linearGradient4750" />
    <radialGradient
       cx="18.63378"
       cy="17.486208"
       fx="18.934305"
       fy="17.810213"
       gradientTransform="scale(1.036822,0.964486)"
       gradientUnits="userSpaceOnUse"
       id="radialGradient32605"
       inkscape:collect="always"
       r="40.692665"
       xlink:href="#linearGradient4750" />
    <radialGradient
       cx="18.63378"
       cy="17.486208"
       fx="18.934305"
       fy="17.810213"
       gradientTransform="scale(1.036822,0.964486)"
       gradientUnits="userSpaceOnUse"
       id="radialGradient32603"
       inkscape:collect="always"
       r="40.692665"
       xlink:href="#linearGradient4750" />
    <radialGradient
       cx="18.63378"
       cy="17.486208"
       fx="18.934305"
       fy="17.810213"
       gradientTransform="scale(1.036822,0.964486)"
       gradientUnits="userSpaceOnUse"
       id="radialGradient32587"
       inkscape:collect="always"
       r="40.692665"
       xlink:href="#linearGradient4750" />
    <radialGradient
       cx="18.63378"
       cy="17.486208"
       fx="18.934305"
       fy="17.810213"
       gradientTransform="scale(1.036822,0.964486)"
       gradientUnits="userSpaceOnUse"
       id="radialGradient32585"
       inkscape:collect="always"
       r="40.692665"
       xlink:href="#linearGradient4750" />
    <radialGradient
       cx="18.63378"
       cy="17.486208"
       fx="18.934305"
       fy="17.810213"
       gradientTransform="scale(1.036822,0.964486)"
       gradientUnits="userSpaceOnUse"
       id="radialGradient32591"
       inkscape:collect="always"
       r="40.692665"
       xlink:href="#linearGradient4750" />
    <radialGradient
       cx="18.63378"
       cy="17.486208"
       fx="18.934305"
       fy="17.810213"
       gradientTransform="scale(1.036822,0.964486)"
       gradientUnits="userSpaceOnUse"
       id="radialGradient32589"
       inkscape:collect="always"
       r="40.692665"
       xlink:href="#linearGradient4750" />
    <radialGradient
       cx="18.63378"
       cy="17.486208"
       fx="18.934305"
       fy="17.810213"
       gradientTransform="scale(1.036822,0.964486)"
       gradientUnits="userSpaceOnUse"
       id="radialGradient32579"
       inkscape:collect="always"
       r="40.692665"
       xlink:href="#linearGradient4750" />
    <radialGradient
       cx="18.63378"
       cy="17.486208"
       fx="18.934305"
       fy="17.810213"
       gradientTransform="scale(1.036822,0.964486)"
       gradientUnits="userSpaceOnUse"
       id="radialGradient32577"
       inkscape:collect="always"
       r="40.692665"
       xlink:href="#linearGradient4750" />
    <radialGradient
       cx="18.63378"
       cy="17.486208"
       fx="18.934305"
       fy="17.810213"
       gradientTransform="scale(1.036822,0.964486)"
       gradientUnits="userSpaceOnUse"
       id="radialGradient32571"
       inkscape:collect="always"
       r="40.692665"
       xlink:href="#linearGradient4750" />
    <radialGradient
       cx="18.63378"
       cy="17.486208"
       fx="18.934305"
       fy="17.810213"
       gradientTransform="scale(1.036822,0.964486)"
       gradientUnits="userSpaceOnUse"
       id="radialGradient32569"
       inkscape:collect="always"
       r="40.692665"
       xlink:href="#linearGradient4750" />
    <radialGradient
       cx="15.601279"
       cy="12.142302"
       fx="15.601279"
       fy="12.142302"
       gradientTransform="matrix(17.887253,0,0,17.887647,-85.112438,82.88338)"
       gradientUnits="userSpaceOnUse"
       id="radialGradient32290"
       inkscape:collect="always"
       r="43.526714"
       xlink:href="#linearGradient9845" />
  </defs>
  <sodipodi:namedview
     id="base"
     pagecolor="#ffffff"
     bordercolor="#666666"
     borderopacity="1.0"
     inkscape:pageopacity="0.0"
     inkscape:pageshadow="2"
     inkscape:zoom="0.175"
     inkscape:cx="-143.22204"
     inkscape:cy="-271.93509"
     inkscape:document-units="px"
     inkscape:current-layer="layer1"
     showgrid="false"
     units="px"
     inkscape:window-width="1920"
     inkscape:window-height="1028"
     inkscape:window-x="-8"
     inkscape:window-y="-8"
     inkscape:window-maximized="1" />
  <metadata
     id="metadata5662">
    <rdf:RDF>
      <cc:Work
         rdf:about="">
        <dc:format>image/svg+xml</dc:format>
        <dc:type
           rdf:resource="http://purl.org/dc/dcmitype/StillImage" />
        <dc:title></dc:title>
      </cc:Work>
    </rdf:RDF>
  </metadata>
  <g
     inkscape:label="Layer 1"
     inkscape:groupmode="layer"
     id="layer1"
     transform="translate(0,-924.36216)">
    <g
       transform="matrix(0.14211703,0,0,0.14211703,1.7443952,905.51846)"
       id="g33613">
      <rect
         height="850"
         id="rect2300-4"
         style="fill:none;stroke:none"
         width="850"
         x="-64.879845"
         y="115.85568" />
      <ellipse
         ry="7.4751287"
         rx="20.203051"
         cy="38.908627"
         cx="24.849752"
         id="path4112"
         style="fill:url(#radialGradient32199);fill-opacity:1;stroke:none"
         transform="matrix(17.88745,0,0,22.238465,-85.112438,-100.86366)" />
      <path
         inkscape:connector-curvature="0"
         d="m 701.21647,502.97873 c 0,191.56958 -155.30063,346.86842 -346.84392,346.86842 -191.56064,0 -346.8526813,-155.30063 -346.8526813,-346.86842 0,-191.56082 155.2920413,-346.84392 346.8526813,-346.84392 191.54329,0 346.84392,155.2831 346.84392,346.84392 l 0,0 z"
         id="path3214"
         style="fill:url(#radialGradient32376);fill-opacity:1;fill-rule:nonzero;stroke:#204a87;stroke-width:17.88744926;stroke-miterlimit:4;stroke-opacity:1" />
      <ellipse
         ry="9.2934036"
         rx="12.929953"
         cy="15.271057"
         cx="17.778685"
         id="path4348"
         style="opacity:0.42159382;fill:url(#radialGradient32203);fill-opacity:1;stroke:none"
         transform="matrix(14.952799,0,0,17.88745,91.737203,82.88338)" />
      <g
         id="g4142"
         style="fill:#000000;fill-opacity:0.71345029;fill-rule:nonzero;stroke:none"
         transform="matrix(17.572112,0,0,17.572112,-82.948056,87.049367)">
        <path
           inkscape:connector-curvature="0"
           d="m 44.0713,20.7144 c 0,0.2627 0,0 0,0 l -0.5449,0.6172 c -0.334,-0.3936 -0.709,-0.7246 -1.0898,-1.0703 l -0.8359,0.123 -0.7637,-0.8633 0,1.0684 0.6543,0.4951 0.4355,0.4932 0.582,-0.6582 c 0.1465,0.2744 0.291,0.5488 0.4365,0.8232 l 0,0.8223 -0.6553,0.7402 -1.1992,0.8232 -0.9082,0.9063 -0.582,-0.6602 0.291,-0.7402 -0.5811,-0.6582 -0.9814,-2.0977 -0.8359,-0.9453 -0.2188,0.2461 0.3281,1.1934 0.6172,0.6992 c 0.3525,1.0176 0.7012,1.9902 1.1641,2.9629 0.7178,0 1.3945,-0.0762 2.1074,-0.166 l 0,0.5762 -0.8721,2.1392 -0.7998,0.9043 -0.6543,1.4004 c 0,0.7676 0,1.5352 0,2.3027 l 0.2188,0.9063 -0.3633,0.4102 -0.8008,0.4941 -0.8359,0.6992 0.6914,0.7813 -0.9453,0.8242 0.1816,0.5332 -1.418,1.6055 -0.9443,0 -0.7998,0.4941 -0.5098,0 0,-0.6582 -0.2168,-1.3184 c -0.2813,-0.8262 -0.5742,-1.6465 -0.8721,-2.4668 0,-0.6055 0.0361,-1.2051 0.0723,-1.8105 l 0.3643,-0.8223 -0.5098,-0.9883 0.0371,-1.3574 -0.6914,-0.7813 0.3457,-1.1309 -0.5625,-0.6382 -0.9824,0 -0.3271,-0.3701 -0.9814,0.6177 -0.3994,-0.4536 -0.9092,0.7817 c -0.6172,-0.6997 -1.2354,-1.3989 -1.8535,-2.0981 l -0.7266,-1.7285 0.6543,-0.9863 -0.3633,-0.4111 0.7988,-1.8936 c 0.6563,-0.8164 1.3418,-1.5996 2.0352,-2.3857 l 1.2363,-0.3291 1.3809,-0.1641 0.9453,0.2471 1.3447,1.3564 0.4727,-0.5342 0.6533,-0.082 1.2363,0.4111 0.9453,0 0.6543,-0.5762 0.291,-0.4111 -0.6553,-0.4111 -1.0908,-0.082 c -0.3027,-0.4199 -0.584,-0.8613 -0.9434,-1.2344 l -0.3643,0.1641 -0.1455,1.0703 -0.6543,-0.7402 -0.1445,-0.8242 -0.7266,-0.5742 -0.292,0 0.7275,0.8223 -0.291,0.7402 -0.5811,0.1641 0.3633,-0.7402 -0.6553,-0.3281 -0.5801,-0.6582 -1.0918,0.2461 -0.1445,0.3281 -0.6543,0.4121 -0.3633,0.9053 -0.9082,0.4521 -0.4004,-0.4521 -0.4355,0 0,-1.4814 0.9453,-0.4941 0.7266,0 -0.1465,-0.5752 -0.5801,-0.5762 0.9805,-0.2061 0.5449,-0.6162 0.4355,-0.7412 0.8008,0 -0.2188,-0.5752 0.5098,-0.3291 0,0.6582 1.0898,0.2461 1.0898,-0.9043 0.0732,-0.4121 0.9443,-0.6577 c -0.3418,0.0425 -0.6836,0.0737 -1.0176,0.1646 l 0,-0.7411 0.3633,-0.8228 -0.3633,0 -0.7984,0.7402 -0.2188,0.4116 0.2188,0.5767 -0.3643,0.9863 -0.5811,-0.3291 -0.5078,-0.5752 -0.8008,0.5752 -0.291,-1.3159 1.3809,-0.9048 0,-0.4941 0.873,-0.5757 1.3809,-0.3296 0.9453,0.3296 1.7441,0.3291 -0.4355,0.4932 -0.9453,0 0.9453,0.9873 0.7266,-0.8223 0.2207,-0.3618 c 0,0 2.7871,2.498 4.3799,5.2305 1.5928,2.7334 2.3408,5.9551 2.3408,6.6094 z"
           id="path4144" />
      </g>
      <g
         id="g4150"
         style="fill:#000000;fill-opacity:0.71345029;fill-rule:nonzero;stroke:none"
         transform="matrix(17.572112,0,0,17.572112,-82.948056,87.049367)">
        <path
           inkscape:connector-curvature="0"
           d="m 26.0703,9.2363 -0.0732,0.4932 0.5098,0.3291 0.8711,-0.5757 -0.4355,-0.4937 -0.582,0.3296 -0.29,-0.0825"
           id="path4152" />
      </g>
      <g
         id="g4158"
         style="fill:#000000;fill-opacity:0.71345029;fill-rule:nonzero;stroke:none"
         transform="matrix(17.572112,0,0,17.572112,-82.948056,87.049367)">
        <path
           inkscape:connector-curvature="0"
           d="m 26.8701,5.8633 -1.8906,-0.7407 -2.1797,0.2466 -2.6904,0.7402 -0.5088,0.4941 1.6719,1.1514 0,0.6582 -0.6543,0.6582 0.873,1.729 0.5801,-0.3301 0.7285,-1.1514 c 1.123,-0.3472 2.1299,-0.7407 3.1973,-1.2344 l 0.873,-2.2212"
           id="path4160" />
      </g>
      <g
         id="g4166"
         style="fill:#000000;fill-opacity:0.71345029;fill-rule:nonzero;stroke:none"
         transform="matrix(17.572112,0,0,17.572112,-82.948056,87.049367)">
        <path
           inkscape:connector-curvature="0"
           d="m 28.833,12.7749 -0.291,-0.7412 -0.5098,0.165 0.1465,0.9043 0.6543,-0.3281"
           id="path4168" />
      </g>
      <g
         id="g4174"
         style="fill:#000000;fill-opacity:0.71345029;fill-rule:nonzero;stroke:none"
         transform="matrix(17.572112,0,0,17.572112,-82.948056,87.049367)">
        <path
           inkscape:connector-curvature="0"
           d="m 29.123,12.6089 -0.1455,0.9883 0.7998,-0.165 0.5811,-0.5752 -0.5088,-0.4941 C 29.6787,11.9078 29.4824,11.483 29.2685,11.0465 l -0.4355,0 0,0.4932 0.29,0.3291 0,0.7402"
           id="path4176" />
      </g>
      <g
         id="g4182"
         style="fill:#000000;fill-opacity:0.71345029;fill-rule:nonzero;stroke:none"
         transform="matrix(17.572112,0,0,17.572112,-82.948056,87.049367)">
        <path
           inkscape:connector-curvature="0"
           d="m 18.3652,28.2422 -0.582,-1.1523 -1.0903,-0.2466 -0.5815,-1.5625 -1.4536,0.1641 -1.2354,-0.9043 -1.3091,1.1514 0,0.1816 c -0.396,-0.1143 -0.8828,-0.1299 -1.2354,-0.3467 l -0.291,-0.8223 0,-0.9053 -0.8721,0.082 c 0.0728,-0.5762 0.145,-1.1514 0.2183,-1.7275 l -0.5093,0 -0.5083,0.6582 -0.5093,0.2461 -0.7271,-0.4102 -0.0728,-0.9053 0.1455,-0.9873 1.0908,-0.8223 0.8721,0 0.145,-0.4941 1.0903,0.2461 0.7998,0.9883 0.1455,-1.6465 1.3813,-1.1514 0.5088,-1.2344 1.0176,-0.4111 0.5815,-0.8223 1.3081,-0.248 0.6548,-0.9863 c -0.6543,0 -1.3086,0 -1.9629,0 l 1.2358,-0.5762 0.8716,0 1.2363,-0.4121 0.1455,-0.4922 -0.4365,-0.4121 -0.5088,-0.165 0.1455,-0.4932 -0.3633,-0.7402 -0.8726,0.3281 0.1455,-0.6577 -1.0176,-0.5762 -0.7993,1.3979 0.0723,0.4941 -0.7993,0.3301 -0.5093,1.0693 -0.2178,-0.9873 -1.3813,-0.5762 -0.2183,-0.7402 1.8174,-1.0703 0.7998,-0.7402 0.0728,-0.9048 -0.436,-0.2471 -0.5815,-0.0825 -0.3633,0.9053 c 0,0 -0.6079,0.1191 -0.7642,0.1577 -1.9961,1.8394 -6.0293,5.8101 -6.9663,13.3062 0.0371,0.1738 0.6792,1.1816 0.6792,1.1816 l 1.5264,0.9043 1.5264,0.4121 0.6548,0.8232 1.0171,0.7402 0.5815,-0.082 0.436,0.1963 0,0.1328 -0.5811,1.563 -0.4365,0.6582 0.1455,0.3301 -0.3633,1.2324 1.3086,2.3867 1.3081,1.1523 0.582,0.8223 -0.0732,1.7285 0.4365,0.9863 -0.4365,1.8926 c 0,0 -0.0342,-0.0117 0.0215,0.1777 0.0562,0.1895 2.3291,1.4512 2.4736,1.3438 0.144,-0.1094 0.2671,-0.2051 0.2671,-0.2051 l -0.145,-0.4102 0.5811,-0.5762 0.2183,-0.5762 0.9453,-0.3301 0.7266,-1.8105 -0.2178,-0.4922 0.5078,-0.7402 1.0908,-0.248 0.582,-1.3164 -0.1455,-1.6445 0.8721,-1.2344 0.1455,-1.2344 C 20.7331,29.4607 19.5495,28.8513 18.365,28.242"
           id="path4184" />
      </g>
      <g
         id="g4190"
         style="fill:#000000;fill-opacity:0.71345029;fill-rule:nonzero;stroke:none"
         transform="matrix(17.572112,0,0,17.572112,-82.948056,87.049367)">
        <path
           inkscape:connector-curvature="0"
           d="m 16.7656,9.5649 0.7266,0.4937 0.582,0 0,-0.5757 -0.7266,-0.3291 -0.582,0.4111"
           id="path4192" />
      </g>
      <g
         id="g4198"
         style="fill:#000000;fill-opacity:0.71345029;fill-rule:nonzero;stroke:none"
         transform="matrix(17.572112,0,0,17.572112,-82.948056,87.049367)">
        <path
           inkscape:connector-curvature="0"
           d="m 14.876,8.9072 -0.3638,0.9048 0.7271,0 0.3638,-0.8228 C 15.9166,8.7675 16.2286,8.5444 16.5479,8.331 l 0.7271,0.2471 c 0.4844,0.3291 0.9688,0.6582 1.4536,0.9868 L 19.4561,8.9072 18.6558,8.5781 18.292,7.8374 16.9111,7.6728 16.8383,7.2612 16.184,7.4262 15.8936,8.002 15.5298,7.2613 l -0.145,0.3291 0.0728,0.8228 -0.5816,0.494"
           id="path4200" />
      </g>
      <g
         id="g4204"
         style="opacity:0.75;fill:#000000;fill-opacity:0.71345029;fill-rule:nonzero;stroke:none"
         transform="matrix(17.572112,0,0,17.572112,-82.948056,87.049367)">
        <path
           inkscape:connector-curvature="0"
           d=""
           id="path4206" />
      </g>
      <g
         id="g4208"
         style="fill:#000000;fill-opacity:0.71345029;fill-rule:nonzero;stroke:none"
         transform="matrix(17.572112,0,0,17.572112,-82.948056,87.049367)">
        <path
           inkscape:connector-curvature="0"
           d=""
           id="path4210" />
      </g>
      <g
         id="g4214"
         style="opacity:0.75;fill:#000000;fill-opacity:0.71345029;fill-rule:nonzero;stroke:none"
         transform="matrix(17.572112,0,0,17.572112,-82.948056,87.049367)">
        <path
           inkscape:connector-curvature="0"
           d=""
           id="path4216" />
      </g>
      <g
         id="g4218"
         style="fill:#000000;fill-opacity:0.71345029;fill-rule:nonzero;stroke:none"
         transform="matrix(17.572112,0,0,17.572112,-82.948056,87.049367)">
        <path
           inkscape:connector-curvature="0"
           d=""
           id="path4220" />
      </g>
      <g
         id="g4226"
         style="fill:#000000;fill-opacity:0.71345029;fill-rule:nonzero;stroke:none"
         transform="matrix(17.572112,0,0,17.572112,-82.948056,87.049367)">
        <path
           inkscape:connector-curvature="0"
           d="M 17.4922,6.8496 17.856,6.521 18.5831,6.3564 c 0.498,-0.2422 0.998,-0.4053 1.5264,-0.5762 l -0.29,-0.4937 -0.9385,0.1348 -0.4434,0.4419 -0.731,0.106 -0.6499,0.3052 -0.3159,0.1528 -0.1929,0.2583 0.9443,0.1641"
           id="path4228" />
      </g>
      <g
         id="g4234"
         style="fill:#000000;fill-opacity:0.71345029;fill-rule:nonzero;stroke:none"
         transform="matrix(17.572112,0,0,17.572112,-82.948056,87.049367)">
        <path
           inkscape:connector-curvature="0"
           d="m 18.7285,14.6665 0.4365,-0.6582 -0.6548,-0.4932 0.2183,1.1514"
           id="path4236" />
      </g>
      <g
         id="g3222"
         style="color:#000000;display:inline;overflow:visible;visibility:visible;fill:url(#radialGradient32671);fill-opacity:1;fill-rule:nonzero;stroke:none;stroke-width:1.01794541;marker:none"
         transform="matrix(17.572112,0,0,17.572112,-86.561321,83.436102)">
        <path
           inkscape:connector-curvature="0"
           d="m 44.0713,20.7144 c 0,0.2627 0,0 0,0 l -0.5449,0.6172 c -0.334,-0.3936 -0.709,-0.7246 -1.0898,-1.0703 l -0.8359,0.123 -0.7637,-0.8633 0,1.0684 0.6543,0.4951 0.4355,0.4932 0.582,-0.6582 c 0.1465,0.2744 0.291,0.5488 0.4365,0.8232 l 0,0.8223 -0.6553,0.7402 -1.1992,0.8232 -0.9082,0.9063 -0.582,-0.6602 0.291,-0.7402 -0.5811,-0.6582 -0.9814,-2.0977 -0.8359,-0.9453 -0.2188,0.2461 0.3281,1.1934 0.6172,0.6992 c 0.3525,1.0176 0.7012,1.9902 1.1641,2.9629 0.7178,0 1.3945,-0.0762 2.1074,-0.166 l 0,0.5762 -0.8721,2.1392 -0.7998,0.9043 -0.6543,1.4004 c 0,0.7676 0,1.5352 0,2.3027 l 0.2188,0.9063 -0.3633,0.4102 -0.8008,0.4941 -0.8359,0.6992 0.6914,0.7813 -0.9453,0.8242 0.1816,0.5332 -1.418,1.6055 -0.9443,0 -0.7998,0.4941 -0.5098,0 0,-0.6582 -0.2168,-1.3184 c -0.2813,-0.8262 -0.5742,-1.6465 -0.8721,-2.4668 0,-0.6055 0.0361,-1.2051 0.0723,-1.8105 l 0.3643,-0.8223 -0.5098,-0.9883 0.0371,-1.3574 -0.6914,-0.7813 0.3457,-1.1309 -0.5625,-0.6382 -0.9824,0 -0.3271,-0.3701 -0.9814,0.6177 -0.3994,-0.4536 -0.9092,0.7817 c -0.6172,-0.6997 -1.2354,-1.3989 -1.8535,-2.0981 l -0.7266,-1.7285 0.6543,-0.9863 -0.3633,-0.4111 0.7988,-1.8936 c 0.6563,-0.8164 1.3418,-1.5996 2.0352,-2.3857 l 1.2363,-0.3291 1.3809,-0.1641 0.9453,0.2471 1.3447,1.3564 0.4727,-0.5342 0.6533,-0.082 1.2363,0.4111 0.9453,0 0.6543,-0.5762 0.291,-0.4111 -0.6553,-0.4111 -1.0908,-0.082 c -0.3027,-0.4199 -0.584,-0.8613 -0.9434,-1.2344 l -0.3643,0.1641 -0.1455,1.0703 -0.6543,-0.7402 -0.1445,-0.8242 -0.7266,-0.5742 -0.292,0 0.7275,0.8223 -0.291,0.7402 -0.5811,0.1641 0.3633,-0.7402 -0.6553,-0.3281 -0.5801,-0.6582 -1.0918,0.2461 -0.1445,0.3281 -0.6543,0.4121 -0.3633,0.9053 -0.9082,0.4521 -0.4004,-0.4521 -0.4355,0 0,-1.4814 0.9453,-0.4941 0.7266,0 -0.1465,-0.5752 -0.5801,-0.5762 0.9805,-0.2061 0.5449,-0.6162 0.4355,-0.7412 0.8008,0 -0.2188,-0.5752 0.5098,-0.3291 0,0.6582 1.0898,0.2461 1.0898,-0.9043 0.0732,-0.4121 0.9443,-0.6577 c -0.3418,0.0425 -0.6836,0.0737 -1.0176,0.1646 l 0,-0.7411 0.3633,-0.8228 -0.3633,0 -0.7984,0.7402 -0.2188,0.4116 0.2188,0.5767 -0.3643,0.9863 -0.5811,-0.3291 -0.5078,-0.5752 -0.8008,0.5752 -0.291,-1.3159 1.3809,-0.9048 0,-0.4941 0.873,-0.5757 1.3809,-0.3296 0.9453,0.3296 1.7441,0.3291 -0.4355,0.4932 -0.9453,0 0.9453,0.9873 0.7266,-0.8223 0.2207,-0.3618 c 0,0 2.7871,2.498 4.3799,5.2305 1.5928,2.7334 2.3408,5.9551 2.3408,6.6094 z"
           id="path3224"
           style="color:#000000;display:inline;overflow:visible;visibility:visible;fill:url(#radialGradient32669);marker:none" />
      </g>
      <g
         id="g3230"
         style="color:#000000;display:inline;overflow:visible;visibility:visible;fill:url(#radialGradient32663);fill-opacity:1;fill-rule:nonzero;stroke:none;stroke-width:1.01794541;marker:none"
         transform="matrix(17.572112,0,0,17.572112,-86.561321,83.436102)">
        <path
           inkscape:connector-curvature="0"
           d="m 26.0703,9.2363 -0.0732,0.4932 0.5098,0.3291 0.8711,-0.5757 -0.4355,-0.4937 -0.582,0.3296 -0.29,-0.0825"
           id="path3232"
           style="color:#000000;display:inline;overflow:visible;visibility:visible;fill:url(#radialGradient32661);marker:none" />
      </g>
      <g
         id="g3238"
         style="color:#000000;display:inline;overflow:visible;visibility:visible;fill:url(#radialGradient32655);fill-opacity:1;fill-rule:nonzero;stroke:none;stroke-width:1.01794541;marker:none"
         transform="matrix(17.572112,0,0,17.572112,-86.561321,83.436102)">
        <path
           inkscape:connector-curvature="0"
           d="m 26.8701,5.8633 -1.8906,-0.7407 -2.1797,0.2466 -2.6904,0.7402 -0.5088,0.4941 1.6719,1.1514 0,0.6582 -0.6543,0.6582 0.873,1.729 0.5801,-0.3301 0.7285,-1.1514 c 1.123,-0.3472 2.1299,-0.7407 3.1973,-1.2344 l 0.873,-2.2212"
           id="path3240"
           style="color:#000000;display:inline;overflow:visible;visibility:visible;fill:url(#radialGradient32653);marker:none" />
      </g>
      <g
         id="g3246"
         style="color:#000000;display:inline;overflow:visible;visibility:visible;fill:url(#radialGradient32647);fill-opacity:1;fill-rule:nonzero;stroke:none;stroke-width:1.01794541;marker:none"
         transform="matrix(17.572112,0,0,17.572112,-86.561321,83.436102)">
        <path
           inkscape:connector-curvature="0"
           d="m 28.833,12.7749 -0.291,-0.7412 -0.5098,0.165 0.1465,0.9043 0.6543,-0.3281"
           id="path3248"
           style="color:#000000;display:inline;overflow:visible;visibility:visible;fill:url(#radialGradient32645);marker:none" />
      </g>
      <g
         id="g3254"
         style="color:#000000;display:inline;overflow:visible;visibility:visible;fill:url(#radialGradient32639);fill-opacity:1;fill-rule:nonzero;stroke:none;stroke-width:1.01794541;marker:none"
         transform="matrix(17.572112,0,0,17.572112,-86.561321,83.436102)">
        <path
           inkscape:connector-curvature="0"
           d="m 29.123,12.6089 -0.1455,0.9883 0.7998,-0.165 0.5811,-0.5752 -0.5088,-0.4941 C 29.6787,11.9078 29.4824,11.483 29.2685,11.0465 l -0.4355,0 0,0.4932 0.29,0.3291 0,0.7402"
           id="path3256"
           style="color:#000000;display:inline;overflow:visible;visibility:visible;fill:url(#radialGradient32637);marker:none" />
      </g>
      <g
         id="g3262"
         style="color:#000000;display:inline;overflow:visible;visibility:visible;fill:url(#radialGradient32631);fill-opacity:1;fill-rule:nonzero;stroke:none;stroke-width:1.01794541;marker:none"
         transform="matrix(17.572112,0,0,17.572112,-86.561321,83.436102)">
        <path
           inkscape:connector-curvature="0"
           d="m 18.3652,28.2422 -0.582,-1.1523 -1.0903,-0.2466 -0.5815,-1.5625 -1.4536,0.1641 -1.2354,-0.9043 -1.3091,1.1514 0,0.1816 c -0.396,-0.1143 -0.8828,-0.1299 -1.2354,-0.3467 l -0.291,-0.8223 0,-0.9053 -0.8721,0.082 c 0.0728,-0.5762 0.145,-1.1514 0.2183,-1.7275 l -0.5093,0 -0.5083,0.6582 -0.5093,0.2461 -0.7271,-0.4102 -0.0728,-0.9053 0.1455,-0.9873 1.0908,-0.8223 0.8721,0 0.145,-0.4941 1.0903,0.2461 0.7998,0.9883 0.1455,-1.6465 1.3813,-1.1514 0.5088,-1.2344 1.0176,-0.4111 0.5815,-0.8223 1.3081,-0.248 0.6548,-0.9863 c -0.6543,0 -1.3086,0 -1.9629,0 l 1.2358,-0.5762 0.8716,0 1.2363,-0.4121 0.1455,-0.4922 -0.4365,-0.4121 -0.5088,-0.165 0.1455,-0.4932 -0.3633,-0.7402 -0.8726,0.3281 0.1455,-0.6577 -1.0176,-0.5762 -0.7993,1.3979 0.0723,0.4941 -0.7993,0.3301 -0.5093,1.0693 -0.2178,-0.9873 -1.3813,-0.5762 -0.2183,-0.7402 1.8174,-1.0703 0.7998,-0.7402 0.0728,-0.9048 -0.436,-0.2471 -0.5815,-0.0825 -0.3633,0.9053 c 0,0 -0.6079,0.1191 -0.7642,0.1577 -1.9961,1.8394 -6.0293,5.8101 -6.9663,13.3062 0.0371,0.1738 0.6792,1.1816 0.6792,1.1816 l 1.5264,0.9043 1.5264,0.4121 0.6548,0.8232 1.0171,0.7402 0.5815,-0.082 0.436,0.1963 0,0.1328 -0.5811,1.563 -0.4365,0.6582 0.1455,0.3301 -0.3633,1.2324 1.3086,2.3867 1.3081,1.1523 0.582,0.8223 -0.0732,1.7285 0.4365,0.9863 -0.4365,1.8926 c 0,0 -0.0342,-0.0117 0.0215,0.1777 0.0562,0.1895 2.3291,1.4512 2.4736,1.3438 0.144,-0.1094 0.2671,-0.2051 0.2671,-0.2051 l -0.145,-0.4102 0.5811,-0.5762 0.2183,-0.5762 0.9453,-0.3301 0.7266,-1.8105 -0.2178,-0.4922 0.5078,-0.7402 1.0908,-0.248 0.582,-1.3164 -0.1455,-1.6445 0.8721,-1.2344 0.1455,-1.2344 C 20.7331,29.4607 19.5495,28.8513 18.365,28.242"
           id="path3264"
           style="color:#000000;display:inline;overflow:visible;visibility:visible;fill:url(#radialGradient32629);marker:none" />
      </g>
      <g
         id="g3270"
         style="color:#000000;display:inline;overflow:visible;visibility:visible;fill:url(#radialGradient32623);fill-opacity:1;fill-rule:nonzero;stroke:none;stroke-width:1.01794541;marker:none"
         transform="matrix(17.572112,0,0,17.572112,-86.561321,83.436102)">
        <path
           inkscape:connector-curvature="0"
           d="m 16.7656,9.5649 0.7266,0.4937 0.582,0 0,-0.5757 -0.7266,-0.3291 -0.582,0.4111"
           id="path3272"
           style="color:#000000;display:inline;overflow:visible;visibility:visible;fill:url(#radialGradient32621);marker:none" />
      </g>
      <g
         id="g3278"
         style="color:#000000;display:inline;overflow:visible;visibility:visible;fill:url(#radialGradient32615);fill-opacity:1;fill-rule:nonzero;stroke:none;stroke-width:1.01794541;marker:none"
         transform="matrix(17.572112,0,0,17.572112,-86.561321,83.436102)">
        <path
           inkscape:connector-curvature="0"
           d="m 14.876,8.9072 -0.3638,0.9048 0.7271,0 0.3638,-0.8228 C 15.9166,8.7675 16.2286,8.5444 16.5479,8.331 l 0.7271,0.2471 c 0.4844,0.3291 0.9688,0.6582 1.4536,0.9868 L 19.4561,8.9072 18.6558,8.5781 18.292,7.8374 16.9111,7.6728 16.8383,7.2612 16.184,7.4262 15.8936,8.002 15.5298,7.2613 l -0.145,0.3291 0.0728,0.8228 -0.5816,0.494"
           id="path3280"
           style="color:#000000;display:inline;overflow:visible;visibility:visible;fill:url(#radialGradient32613);marker:none" />
      </g>
      <g
         id="g3284"
         style="color:#000000;display:inline;overflow:visible;visibility:visible;opacity:0.75;fill:url(#radialGradient32601);fill-opacity:1;fill-rule:nonzero;stroke:none;stroke-width:1.01794541;marker:none"
         transform="matrix(17.572112,0,0,17.572112,-86.561321,83.436102)">
        <path
           inkscape:connector-curvature="0"
           d=""
           id="path3286"
           style="color:#000000;display:inline;overflow:visible;visibility:visible;fill:url(#radialGradient32599);marker:none" />
      </g>
      <g
         id="g3288"
         style="color:#000000;display:inline;overflow:visible;visibility:visible;fill:url(#radialGradient32605);fill-opacity:1;fill-rule:nonzero;stroke:none;stroke-width:1.01794541;marker:none"
         transform="matrix(17.572112,0,0,17.572112,-86.561321,83.436102)">
        <path
           inkscape:connector-curvature="0"
           d=""
           id="path3290"
           style="color:#000000;display:inline;overflow:visible;visibility:visible;fill:url(#radialGradient32603);marker:none" />
      </g>
      <g
         id="g3294"
         style="color:#000000;display:inline;overflow:visible;visibility:visible;opacity:0.75;fill:url(#radialGradient32587);fill-opacity:1;fill-rule:nonzero;stroke:none;stroke-width:1.01794541;marker:none"
         transform="matrix(17.572112,0,0,17.572112,-86.561321,83.436102)">
        <path
           inkscape:connector-curvature="0"
           d=""
           id="path3296"
           style="color:#000000;display:inline;overflow:visible;visibility:visible;fill:url(#radialGradient32585);marker:none" />
      </g>
      <g
         id="g3298"
         style="color:#000000;display:inline;overflow:visible;visibility:visible;fill:url(#radialGradient32591);fill-opacity:1;fill-rule:nonzero;stroke:none;stroke-width:1.01794541;marker:none"
         transform="matrix(17.572112,0,0,17.572112,-86.561321,83.436102)">
        <path
           inkscape:connector-curvature="0"
           d=""
           id="path3300"
           style="color:#000000;display:inline;overflow:visible;visibility:visible;fill:url(#radialGradient32589);marker:none" />
      </g>
      <g
         id="g3306"
         style="color:#000000;display:inline;overflow:visible;visibility:visible;fill:url(#radialGradient32579);fill-opacity:1;fill-rule:nonzero;stroke:none;stroke-width:1.01794541;marker:none"
         transform="matrix(17.572112,0,0,17.572112,-86.561321,83.436102)">
        <path
           inkscape:connector-curvature="0"
           d="M 17.4922,6.8496 17.856,6.521 18.5831,6.3564 c 0.498,-0.2422 0.998,-0.4053 1.5264,-0.5762 l -0.29,-0.4937 -0.9385,0.1348 -0.4434,0.4419 -0.731,0.106 -0.6499,0.3052 -0.3159,0.1528 -0.1929,0.2583 0.9443,0.1641"
           id="path3308"
           style="color:#000000;display:inline;overflow:visible;visibility:visible;fill:url(#radialGradient32577);marker:none" />
      </g>
      <g
         id="g3314"
         style="color:#000000;display:inline;overflow:visible;visibility:visible;fill:url(#radialGradient32571);fill-opacity:1;fill-rule:nonzero;stroke:none;stroke-width:1.01794541;marker:none"
         transform="matrix(17.572112,0,0,17.572112,-86.561321,83.436102)">
        <path
           inkscape:connector-curvature="0"
           d="m 18.7285,14.6665 0.4365,-0.6582 -0.6548,-0.4932 0.2183,1.1514"
           id="path3316"
           style="color:#000000;display:inline;overflow:visible;visibility:visible;fill:url(#radialGradient32569);marker:none" />
      </g>
      <path
         inkscape:connector-curvature="0"
         d="m 683.60162,502.97944 c 0,181.8406 -147.41369,329.25251 -329.22925,329.25251 -181.83219,0 -329.237656,-147.4137 -329.237656,-329.25251 0,-181.83236 147.405466,-329.22925 329.237656,-329.22925 181.81556,0 329.22925,147.39689 329.22925,329.22925 l 0,0 z"
         id="path4122"
         style="fill:none;stroke:url(#radialGradient32290);stroke-width:17.88744926;stroke-miterlimit:4;stroke-opacity:1" />
    </g>
    <g
       transform="matrix(0.1063121,0,0,0.1063121,48.934617,952.58505)"
       id="g35677">
      <g
         id="g35668">
        <rect
           height="850"
           id="rect2300"
           style="fill:none;stroke:none"
           width="850"
           x="-64.879845"
           y="115.85568" />
        <ellipse
           ry="4.552"
           rx="16.882174"
           cy="35.051105"
           cx="24.218407"
           id="path2452"
           style="display:inline;overflow:visible;visibility:visible;opacity:0.50857143;fill:url(#radialGradient35088);fill-opacity:1;fill-rule:evenodd;stroke:none;stroke-width:1;marker:none"
           transform="matrix(22.64864,0,0,17.97418,-183.8862,229.3831)" />
        <path
           inkscape:connector-curvature="0"
           d="m 149.64097,462.77119 0,-122.55827 c 0,-125.51812 84.12878,-182.74178 209.22253,-181.17424 125.77437,1.56753 208.8138,56.17792 208.8138,183.17269 l -0.20845,120.55982 -76.73795,0 0,-88.997 c -2.06012,-30.8929 8.56244,-134.37251 -130.98679,-134.37251 -140.51178,0 -132.25265,103.8535 -131.74913,134.98757 l 0,88.38194 -78.35452,0 z"
           id="path2086"
           sodipodi:nodetypes="cczcccczccc"
           style="fill:url(#linearGradient35664);fill-opacity:1;fill-rule:evenodd;stroke:url(#linearGradient35666);stroke-width:37.98667145;stroke-linecap:butt;stroke-linejoin:miter;stroke-miterlimit:4;stroke-dasharray:none;stroke-opacity:1" />
        <rect
           height="377.42322"
           id="rect1314"
           rx="84.899323"
           ry="73.867165"
           style="fill:url(#linearGradient35659);fill-opacity:1;fill-rule:evenodd;stroke:url(#linearGradient35661);stroke-width:37.98667526;stroke-linecap:round;stroke-linejoin:round;stroke-miterlimit:4;stroke-dasharray:none;stroke-dashoffset:0;stroke-opacity:1"
           width="550.18536"
           x="92.865761"
           y="464.39069" />
        <rect
           height="302.70956"
           id="rect6903"
           rx="46.140316"
           ry="46.140354"
           style="fill:none;stroke:url(#linearGradient35656);stroke-width:37.98670959;stroke-linecap:round;stroke-linejoin:round;stroke-miterlimit:4;stroke-dasharray:none;stroke-dashoffset:0;stroke-opacity:0.60109289"
           width="480.31729"
           x="127.86926"
           y="501.4451" />
        <path
           inkscape:connector-curvature="0"
           d="m 163.64595,347.00672 c 4.16875,-92.93931 30.00738,-162.92832 202.36234,-168.86158 -111.60142,15.72802 -172.30435,48.31298 -172.30435,145.47854 0,0 -2.78392,120.42879 -2.78392,120.42879 l -27.27407,0 0,-97.04575 z"
           id="rect11343"
           sodipodi:nodetypes="ccsccc"
           style="fill:url(#linearGradient35653);fill-opacity:1;fill-rule:evenodd;stroke:none" />
        <rect
           height="157.21413"
           id="rect1345"
           rx="0"
           ry="0"
           style="fill:url(#linearGradient35650);fill-opacity:1;fill-rule:evenodd;stroke:none"
           width="31.442825"
           x="509.51706"
           y="287.52774" />
      </g>
    </g>
  </g>
</svg>
